<svg version="1.1" xmlns="http://www.w3.org/2000/svg" style="display: block;" viewBox="0 0 2048 2048" width="1024" height="1024">
<path transform="translate(0,0)" fill="rgb(246,244,239)" d="M 0 0 L 2048 0 L 2048 2048 L 0 2048 L 0 0 z"/>
<path transform="translate(0,0)" fill="rgb(192,89,90)" d="M 703.116 86.4293 A 370.784 370.784 0 0 1 712.715 86.135 C 840.413 84.4412 968.239 86.2827 1095.95 85.8704 L 1254.29 85.9805 C 1293.19 85.8866 1332.5 84.3155 1371.29 87.6967 C 1528.38 101.391 1663.6 169.759 1775.59 279.248 C 1856.57 358.416 1921.54 477.589 1945.27 588.1 C 1954.36 630.405 1957.77 674.194 1958.24 717.384 C 1959.63 842.227 1957.79 967.182 1958.13 1092.05 L 1957.96 1271.67 C 1957.94 1308.91 1959.71 1346.55 1956.18 1383.67 A 628.798 628.798 0 0 1 1825.58 1711.56 C 1812.18 1728.76 1798.81 1745.5 1783.53 1761.09 C 1769.82 1775.07 1756.04 1789.21 1741.24 1802.04 A 657.149 657.149 0 0 1 1457.02 1946.16 C 1418.67 1954.92 1380.96 1960.82 1341.55 1961.23 L 940.951 1960.48 A 12804 12804 0 0 1 795.149 1960.63 C 751.774 1960.83 708.656 1962.05 665.393 1957.94 C 525.137 1944.62 395.045 1881.4 291.23 1787.32 C 174.998 1681.98 97.1704 1513.18 89.4509 1356.76 C 87.2614 1312.39 88.8126 1267.28 88.8291 1222.84 L 88.771 989.498 L 88.1057 810.5 C 87.8272 757.458 86.8141 701.887 93.0156 649.286 A 644.357 644.357 0 0 1 255.062 296.646 A 645.45 645.45 0 0 1 703.116 86.4293 z"/>
<path transform="translate(0,0)" fill="rgb(246,244,239)" d="M 698.684 107.438 C 739.387 105.126 781.068 106.804 821.855 106.811 L 1047.84 106.869 L 1242.79 106.749 C 1284.08 106.836 1326.1 105.122 1367.22 108.577 A 629.386 629.386 0 0 1 1732.55 266.185 C 1848.22 367.674 1927.19 526.049 1937.22 679.793 C 1939.8 719.331 1938.69 759.366 1938.74 798.989 L 1938.34 1022.99 A 18759.2 18759.2 0 0 1 1938.64 1229.28 C 1938.74 1280.47 1940.27 1332.13 1935.46 1383.15 A 607.88 607.88 0 0 1 1787.1 1726.47 A 624.821 624.821 0 0 1 1350.9 1939.82 C 1303.89 1940.84 1256.73 1940.07 1209.71 1940.02 L 975.003 1940.11 L 814.559 1940.06 C 769.126 1940.14 722.876 1942.02 677.586 1938.18 C 541.213 1926.59 415.507 1869.71 313.576 1779.13 C 198.951 1677.26 119.361 1518.7 110.423 1365.09 C 107.465 1314.25 109.105 1262.68 109.062 1211.73 L 108.732 987.79 L 108.75 800.635 C 108.888 748.11 108.687 696.04 115.504 643.836 A 610.571 610.571 0 0 1 267.694 313.704 A 627.108 627.108 0 0 1 698.684 107.438 z"/>
<path transform="translate(0,0)" fill="rgb(134,50,51)" d="M 1767.14 507.29 C 1776.42 510.372 1782.52 549.174 1796.78 562.615 C 1808.18 573.348 1853.15 584.957 1856.48 590.585 C 1849.2 595.983 1827 600.829 1816.92 605.208 C 1810.27 608.095 1803.65 611.269 1798.41 616.396 C 1785.56 628.983 1777.77 656.831 1771.09 673.759 L 1768.61 674.82 C 1762.79 670.89 1754.73 629.565 1741.27 616.292 C 1728.35 603.557 1692.47 600.887 1684.6 591.957 L 1684.8 590.022 C 1691.07 584.607 1709.53 581.459 1718.06 578.212 C 1758.02 562.994 1752.24 540.573 1767.14 507.29 z"/>
<path transform="translate(0,0)" fill="rgb(221,143,139)" d="M 1768.76 523.783 C 1772.22 527.692 1776.24 544.591 1779.53 550.939 C 1792.06 575.149 1814.89 581.529 1838.98 589.3 C 1829.99 593.32 1820.52 596.263 1811.53 600.375 C 1786.42 611.865 1779.03 632.393 1770.08 656.613 L 1769.78 657.395 C 1766.45 656.025 1759.74 631.51 1757.21 626.473 C 1746.2 604.575 1723.85 598.285 1702.5 590.823 C 1713.12 587.2 1724.32 583.837 1734.24 578.581 C 1756.52 566.783 1761.86 545.964 1768.76 523.783 z"/>
<path transform="translate(0,0)" fill="rgb(134,50,51)" d="M 1664.61 361.171 C 1665.95 361.624 1667.12 362.038 1668.07 363.17 C 1675.68 372.255 1680.92 402.563 1693.46 416.211 C 1706.5 430.397 1749.15 441.35 1752.03 446.625 C 1749.16 453.704 1715.96 462.023 1707.36 466.325 C 1684.14 477.939 1678.41 504.077 1671.01 526.807 L 1669.44 529.304 L 1667.37 529.51 C 1659.94 523.981 1651.06 486.717 1640.62 474.781 C 1626.36 458.476 1601.65 460.492 1586.58 447.721 C 1586.56 447.152 1586.33 446.547 1586.53 446.015 C 1586.85 445.17 1624.84 429.918 1631.21 425.196 C 1649.74 411.46 1655.12 381.392 1664.61 361.171 z"/>
<path transform="translate(0,0)" fill="rgb(221,143,139)" d="M 1666.23 379.689 C 1671.39 387.233 1674.74 397.183 1678.72 405.477 C 1690.6 430.229 1712.72 437.527 1736.72 446.734 C 1727.39 450.315 1717.73 453.617 1708.69 457.853 C 1684.36 469.252 1677.47 487.196 1668.83 510.809 L 1667.4 512.202 C 1656.92 502.669 1659.97 476.566 1636.27 461.734 C 1625.72 455.124 1612.74 451.982 1601.38 446.851 C 1605.99 444.721 1610.89 443.057 1615.6 441.146 C 1649.59 427.37 1652.86 411.153 1666.23 379.689 z"/>
<path transform="translate(0,0)" fill="rgb(134,50,51)" d="M 1302.97 173.486 C 1309.16 176.665 1324.46 226.935 1335.78 239.232 C 1348.56 253.102 1393.05 260.203 1398.21 269.881 C 1392.17 275.674 1358.19 283.926 1347.97 288.346 C 1341.69 291.062 1335.72 294.442 1331.11 299.592 C 1320.36 311.577 1311.5 341.2 1305.42 356.604 C 1303.92 357.011 1303.2 356.837 1301.69 356.595 C 1296.03 351.517 1294.77 340.463 1292.33 333.508 C 1272.87 277.96 1260.22 292.917 1216.02 271.845 C 1214.15 270.952 1212.05 270.411 1211.33 268.395 C 1225.67 255.593 1259.91 257.178 1275.48 235.896 C 1288.68 217.845 1291.42 189.542 1302.97 173.486 z"/>
<path transform="translate(0,0)" fill="rgb(221,143,139)" d="M 1303.3 190.692 C 1309.09 197.228 1314.19 219.717 1319.68 229.699 C 1333.14 254.195 1357.66 261.431 1382.87 268.56 C 1368.45 273.286 1353.52 277.681 1339.79 284.216 C 1318.06 294.565 1312.51 318.596 1305.01 339.507 C 1304.77 340.156 1304.13 340.575 1303.67 341.088 C 1298.78 335.849 1291.33 312.643 1287.58 304.638 C 1276.92 281.884 1250.4 276.736 1228.97 268.816 C 1238.94 265.189 1249.17 261.75 1258.77 257.233 C 1287.15 243.867 1293.42 217.822 1303.3 190.692 z"/>
<path transform="translate(0,0)" fill="rgb(134,50,51)" d="M 1495.12 240.271 C 1501.36 243.04 1504.65 255.559 1507.04 261.771 C 1532.27 327.34 1522.26 327.276 1590.12 351.314 C 1595.8 353.323 1606.04 355.501 1610.21 359.57 C 1611.38 360.711 1610.99 360.605 1611.02 362.423 C 1608.34 366.39 1563.16 379.121 1554.3 382.534 C 1545.89 385.776 1537.42 389.572 1530.85 395.914 C 1514.93 411.287 1505.9 452.567 1496.26 474.078 L 1494.12 473.438 C 1487.28 467.323 1475.09 423.873 1469.69 412.159 C 1466.66 405.607 1462.44 398.146 1457.04 393.33 C 1443.08 380.89 1409.2 374.301 1390.99 367.502 C 1387.6 366.236 1383.9 365.064 1382.31 361.542 L 1383.13 359.43 C 1393.54 351.489 1427.12 344.905 1441.41 338.661 C 1448.59 335.527 1455.19 331.48 1460.07 325.221 C 1471.52 310.55 1487.55 259.789 1495.12 240.271 z"/>
<path transform="translate(0,0)" fill="rgb(221,143,139)" d="M 1496.2 258.622 C 1500.33 262.762 1516.43 308.882 1521.77 319.073 C 1536.15 346.56 1568.66 352.85 1596.01 361.465 C 1578.61 366.291 1561.12 371.038 1544.4 377.949 C 1537.43 380.831 1530.47 384.318 1525.03 389.655 C 1510.27 404.145 1503.2 436.663 1495.19 456.183 L 1494.86 456.36 C 1492.4 454.349 1481.28 419.972 1478.72 414.173 C 1460.7 373.381 1433.65 375.459 1396.53 361.073 C 1413.5 356.377 1430.61 351.347 1446.66 344.045 C 1453.34 341.001 1459.82 337.269 1464.75 331.713 C 1477.96 316.833 1488.8 278.181 1496.2 258.622 z"/>
<path transform="translate(0,0)" fill="rgb(134,50,51)" d="M 1062.49 375.207 C 1065.98 375.124 1069.72 376.367 1072.42 378.608 C 1074.12 380.024 1075.19 381.887 1075.81 384.002 C 1079.29 395.753 1079.68 409.392 1080.97 421.552 A 1533.39 1533.39 0 0 0 1087.72 480.112 C 1122.7 473.216 1157.03 462.843 1191.94 455.848 C 1196.73 454.888 1202.48 453.827 1206.58 457.306 C 1209.19 459.523 1210.09 463.049 1210.86 466.237 C 1213.04 475.197 1213.32 485.135 1214.34 494.331 A 5004.67 5004.67 0 0 0 1220.89 551.697 C 1244.46 545.723 1268.32 541.113 1291.98 535.552 C 1305.94 532.27 1321.65 526.382 1335.91 525.343 C 1339.36 525.092 1342.93 525.866 1345.44 528.424 C 1352.58 535.685 1353.1 581.756 1353.95 593.775 C 1375.47 590.607 1396.92 582.235 1418.66 581.381 C 1441.15 580.498 1459.52 589.315 1475.66 604.318 C 1501.45 597.857 1527.42 591.32 1553.46 585.957 C 1573.64 581.8 1592.89 582.412 1610.56 594.233 C 1638.05 612.616 1642 644.789 1647.4 674.724 A 2153.5 2153.5 0 0 0 1655.77 716.726 C 1679.67 711.805 1701.64 701.161 1725.32 714.143 C 1738.83 721.547 1747.17 734.979 1751.24 749.487 C 1754.06 759.512 1754.26 769.71 1752.96 779.988 C 1750.89 796.339 1747.17 812.622 1744.06 828.807 L 1733.1 888.606 L 1695.09 1092.47 C 1684.35 1149.66 1672.79 1206.73 1662.65 1264.03 A 6401.64 6401.64 0 0 1 1641.12 1382.01 C 1637.56 1400.83 1634.52 1419.95 1630.25 1438.61 A 80.5477 80.5477 0 0 1 1621.82 1460.33 C 1614.34 1473.51 1602.27 1486.8 1588.4 1493.32 C 1567.56 1503.1 1543.61 1507.49 1521.43 1513.41 A 9109.15 9109.15 0 0 1 1409.51 1543.03 L 1175.47 1606.38 C 1123.08 1620.45 1070.37 1633.4 1018.17 1648.13 C 949.384 1665.28 881.083 1685.01 812.522 1703.13 C 786.471 1710.01 760.375 1717.47 734.075 1723.3 C 725.032 1725.31 714.212 1727.23 705.058 1725.44 C 687.453 1722 567.396 1668.17 550.525 1657.26 C 531.743 1645.12 517.34 1624.36 509.829 1603.53 C 505.346 1591.1 503.524 1577.95 500.988 1565.03 L 490.8 1514.17 C 482.558 1471.36 473.352 1428.71 464.649 1385.99 A 44996 44996 0 0 0 358.219 870.285 C 347.713 822.207 338.691 773.806 328.47 725.666 L 315.636 665.098 C 312.431 649.74 308.127 633.455 308.117 617.724 C 308.107 602.302 313.097 586.665 321.497 573.783 C 330.282 560.308 343.337 548.673 358.513 542.985 C 385.309 532.941 422.328 527.019 450.967 520.428 L 612.258 482.395 L 884.769 417.558 C 943.919 403.257 1003.01 388.069 1062.49 375.207 z"/>
<path transform="translate(0,0)" fill="rgb(246,244,239)" d="M 1184.91 482.287 L 1187.45 482.158 C 1187.87 482.646 1188.42 483.048 1188.71 483.622 C 1189.57 485.343 1195.71 551.509 1196.32 558.586 L 677.827 683.692 C 613.946 699.413 549.035 712.836 485.738 730.78 C 481.762 727.44 476.591 662.178 475.338 651.815 C 512.418 641.4 550.119 633.316 587.507 624.127 A 11847.3 11847.3 0 0 1 855.564 560.069 L 1117.03 498.412 C 1139.71 493.243 1162.12 486.987 1184.91 482.287 z"/>
<path transform="translate(0,0)" fill="rgb(246,244,239)" d="M 1321.63 553.2 C 1322.84 553.016 1323.85 553.286 1325.04 553.484 C 1329.16 560.881 1329.72 590.721 1330.25 600.49 C 1311.01 605.433 1291.47 609.16 1272.08 613.503 L 1172.67 636.253 A 27477.6 27477.6 0 0 0 705.605 748.632 L 598.571 775.051 C 584.383 778.556 569.762 781.169 555.793 785.409 C 552.56 786.391 548.677 787.343 546.738 790.169 C 544.292 811.197 549.85 835.795 552.137 856.898 L 568.39 1002.11 L 612.006 1403.27 L 631.225 1574.44 C 633.674 1595.09 635.264 1615.99 638.31 1636.54 C 640.275 1649.79 643.988 1661.15 649.61 1673.29 C 637.265 1669.78 626.718 1664.34 616.057 1657.27 C 601.592 1645.03 589.68 1631.61 584.61 1612.88 C 580.845 1598.97 579.993 1584.25 578.225 1569.99 C 575.394 1547.13 572.446 1524.33 569.972 1501.44 L 551.084 1334.35 L 486.608 756.035 C 613.789 722.513 742.916 693.157 870.826 662.204 L 1321.63 553.2 z"/>
<path transform="translate(0,0)" fill="rgb(246,244,239)" d="M 1415.67 606.295 C 1416.02 606.237 1416.37 606.168 1416.72 606.121 C 1423.35 605.243 1434.57 604.865 1439.97 609.577 C 1441.26 610.71 1440.83 610.486 1440.9 612.425 C 1438.9 614.609 1436.98 615.362 1434.18 616.239 C 1420.57 620.492 1400.46 623.671 1385.9 627.027 L 1301.21 647.003 C 1279.78 651.965 1258.05 656.354 1236.94 662.566 C 1165.13 683.708 1168.49 743.77 1138.34 754.431 C 1123.42 759.708 1106.72 762.607 1091.31 766.402 L 998.621 789.209 L 716.492 859.962 C 701.603 863.697 640.205 876.413 631.434 883.182 C 625.76 887.56 630.233 916.402 630.994 924.303 L 644.078 1052.52 A 16300.3 16300.3 0 0 0 669.335 1309.22 L 683.864 1443.98 C 685.942 1463.31 690.847 1484.2 690.458 1503.51 C 690.137 1519.44 685.031 1535.81 682.367 1551.53 C 679.356 1569.31 677.266 1587.22 674.423 1605 C 672.318 1618.18 669.657 1631.25 667.708 1644.45 L 666.153 1644.52 C 659.909 1622.11 658.914 1596.57 655.966 1573.41 A 11551.8 11551.8 0 0 1 633.758 1369.94 L 571.69 807.155 C 636.13 789.515 701.672 774.707 766.582 758.754 A 25211.8 25211.8 0 0 1 1140.54 669.524 L 1312.03 629.769 C 1346.39 621.703 1380.92 612.471 1415.67 606.295 z"/>
<path transform="translate(0,0)" fill="rgb(134,50,51)" d="M 1120.66 712.332 C 1122.8 712.004 1125.21 711.612 1127.24 712.701 C 1129.43 713.881 1130.86 715.871 1131.23 718.347 C 1131.49 720.01 1131 721.444 1130.15 722.805 C 1128.02 726.174 1124.02 728.206 1120.4 729.569 C 1107.69 734.36 1092.67 736.411 1079.39 739.409 C 1059.74 743.846 1040.24 748.841 1020.6 753.305 C 1018.57 753.346 1016.13 753.376 1014.22 752.646 C 1011.74 751.703 1010.75 749.746 1009.68 747.515 C 1009.51 744.938 1009.74 743.314 1011.43 741.227 C 1017.25 734.015 1106.21 714.637 1120.66 712.332 z"/>
<path transform="translate(0,0)" fill="rgb(134,50,51)" d="M 955.493 749.177 C 956.925 749.048 957.436 748.939 958.973 749.117 C 961.589 749.42 963.837 751.087 965.494 752.993 C 966.081 755.575 966.523 757.212 965.266 759.689 C 963.354 763.456 958.705 765.992 954.954 767.486 C 944.912 771.487 932.499 773.324 921.972 776.02 A 4812.67 4812.67 0 0 1 839.341 796.616 C 838.54 796.583 837.746 796.449 836.954 796.323 C 834.222 795.892 831.657 794.805 830.234 792.268 C 828.542 789.253 829.212 786.522 830.424 783.533 C 836.742 776.592 938.862 752.908 955.493 749.177 z"/>
<path transform="translate(0,0)" fill="rgb(134,50,51)" d="M 769.495 798.211 C 771.874 797.843 775.224 797.517 777.463 798.48 C 779.66 799.426 781.389 801.625 782.002 803.899 A 8.37528 8.37528 0 0 1 780.575 811.118 A 10.6898 10.6898 0 0 1 775.389 814.802 C 759.753 820.044 742.64 823.166 726.586 827.05 C 705.343 832.19 684.252 838.115 662.964 843.212 C 659.922 843.391 655.3 843.887 652.426 842.893 C 650.104 842.089 648.93 840.561 648.241 838.215 C 647.797 836.704 648.179 834.887 648.897 833.527 C 650.935 829.672 655.479 827.247 659.325 825.626 C 671.573 820.462 686.511 818.175 699.496 814.988 C 722.804 809.266 745.989 803.097 769.495 798.211 z"/>
<path transform="translate(0,0)" fill="rgb(246,244,239)" d="M 1570.38 608.381 C 1580.1 607.628 1590.25 609.913 1598.33 615.464 C 1605.44 620.347 1610.72 627.294 1614.27 635.099 C 1622.98 654.236 1628.86 699.859 1632.95 722.181 L 1202.91 828.153 L 956.964 887.897 C 937.837 892.535 918.717 897.633 899.502 901.857 C 884.134 905.235 868.274 907.419 853.16 911.811 C 843.577 914.596 834.516 918.511 826.303 924.232 C 808.044 936.95 796.013 956.722 788.159 977.169 C 781.496 994.514 778.207 1013.19 774.504 1031.35 A 4193.97 4193.97 0 0 0 759.632 1109.1 C 741.448 1206.92 725.4 1305.03 708.262 1403.03 L 705.852 1418.05 C 700.624 1375.56 697.871 1332.54 693.425 1289.92 L 652.625 901.804 L 1029.61 807.028 L 1110.7 787.243 C 1125.47 783.535 1144.02 780.548 1157.3 772.964 C 1178.27 760.981 1186.05 732.225 1201.06 714.043 C 1209.97 703.251 1219.88 695.471 1232.96 690.439 C 1247.77 684.743 1264.21 681.671 1279.6 677.831 C 1315.08 668.98 1350.79 661.256 1386.3 652.566 A 12049.8 12049.8 0 0 1 1506.48 622.735 C 1527.31 617.587 1549.05 610.517 1570.38 608.381 z"/>
<path transform="translate(0,0)" fill="rgb(246,244,239)" d="M 1051.4 403.079 L 1053.09 403.22 C 1056.53 409.231 1061.44 473.047 1062.68 485.993 A 33975.9 33975.9 0 0 0 618.505 591.111 L 508.459 617.46 C 491.983 621.466 472.558 624.391 457.061 631.157 C 453.857 632.557 451.779 634.339 450.673 637.761 C 449.596 641.095 450.063 645.242 450.369 648.695 C 454.434 694.634 460.772 740.537 465.698 786.406 L 504.747 1146.09 A 27842.4 27842.4 0 0 0 536.676 1426.14 A 7711.67 7711.67 0 0 0 549.389 1535.31 C 552.019 1557.78 554.018 1580.48 557.717 1602.8 C 560.013 1616.66 565.062 1628.49 571.547 1640.88 A 242.268 242.268 0 0 1 569.148 1639.33 C 545.685 1623.95 533.576 1604.43 527.962 1577.22 L 405.3 976.427 C 392.377 915.171 380.465 853.63 367.107 792.485 A 6043.07 6043.07 0 0 1 346.952 696.567 C 342.274 674.433 336.701 652.07 333.351 629.7 C 331.675 618.51 331.562 608.765 335.837 597.996 C 339.45 588.896 349.309 572.581 358.632 568.89 C 380.507 560.231 404.105 556.836 426.962 551.56 L 534.877 525.989 L 873.743 445.474 A 6914.37 6914.37 0 0 0 985.96 418.634 C 1007.76 413.457 1029.81 409.085 1051.4 403.079 z"/>
<path transform="translate(0,0)" fill="rgb(246,244,239)" d="M 1693.67 733.28 C 1701.28 732.566 1707.58 731.942 1714.31 736.36 C 1721.91 741.345 1726.47 750.351 1728.26 759.055 C 1729.56 765.419 1729.17 772.095 1728.24 778.49 C 1722.86 815.581 1714.87 852.456 1708.18 889.339 A 24037.6 24037.6 0 0 1 1661.49 1139.7 L 1626.01 1332.25 C 1620.01 1364.65 1614.83 1397.46 1607.45 1429.57 C 1605.57 1437.75 1603.29 1445.49 1598.73 1452.62 C 1592.42 1462.48 1582.36 1470.91 1571.29 1474.91 C 1557.15 1480.03 1542 1483.32 1527.45 1487.15 L 1455.76 1505.98 L 1231.76 1565.13 L 941.133 1642.82 L 793.52 1682.04 C 771.614 1687.66 749.732 1694.11 727.613 1698.78 C 722.104 1699.46 716.541 1699.06 711.006 1698.88 C 710.133 1698.39 709.255 1697.9 708.408 1697.37 C 699.465 1691.72 694.939 1683.27 693.006 1673.03 C 691.06 1662.72 692.143 1650.73 693.457 1640.39 C 697.515 1608.41 704.273 1576.55 709.472 1544.72 L 754.834 1281.99 A 11400.6 11400.6 0 0 1 788.237 1093.82 C 793.29 1065.97 796.773 1037.74 803.471 1010.22 C 807.396 994.095 813.408 976.06 822.91 962.312 C 829.279 953.096 838.13 942.995 848.959 939.242 C 864.817 933.746 882.391 930.998 898.76 927.191 L 980.621 907.448 L 1227.41 847.279 L 1523.6 775.151 L 1625.18 749.401 C 1647.9 743.645 1670.61 737.513 1693.67 733.28 z"/>
<path transform="translate(0,0)" fill="rgb(134,50,51)" d="M 1352.37 1013.22 C 1364.48 1011.87 1377.97 1013.05 1388.16 1020.28 C 1397.97 1027.25 1402.39 1038.82 1404.1 1050.33 C 1414.23 1118.3 1332.66 1256.35 1298.86 1314.86 C 1284.83 1339.15 1271.33 1365.8 1254.69 1388.35 C 1247.02 1382.48 1240.17 1374.72 1233.53 1367.71 C 1210.41 1343.3 1189.79 1316.78 1169.07 1290.35 C 1144.44 1257.16 1117.9 1225.69 1103.33 1186.34 C 1093.29 1159.21 1092.46 1130.33 1104.74 1103.76 C 1114.75 1082.09 1132.09 1064.18 1154.69 1055.91 C 1170.78 1050.03 1189.35 1048.44 1205.13 1056.12 C 1234.11 1070.22 1247.35 1104.08 1257.26 1132.58 C 1265.57 1106.37 1272.63 1080.53 1288.25 1057.39 C 1304.7 1033.01 1323.41 1018.98 1352.37 1013.22 z"/>
<path transform="translate(0,0)" fill="rgb(246,244,239)" d="M 1352.38 1027.22 C 1360.92 1026.43 1369.9 1026.02 1377.63 1030.37 C 1384.06 1033.99 1387.93 1040.2 1389.93 1047.16 C 1409.92 1116.48 1287.78 1302.82 1252.96 1368.13 C 1242.88 1359.34 1233.72 1347.95 1225.01 1337.78 C 1202.57 1311.55 1181.43 1284.04 1160.55 1256.56 C 1136.58 1223.46 1107.22 1183.3 1109.4 1140.24 C 1110.45 1119.58 1120.37 1097.62 1135.89 1083.85 C 1148.83 1072.37 1168.45 1063.72 1185.93 1065.25 C 1221.01 1068.33 1237.03 1112.27 1246.21 1140.77 C 1248.72 1148.58 1248.9 1157.71 1254.47 1164.11 C 1255.77 1164.62 1256.62 1165.31 1258.03 1164.91 C 1261.11 1164.04 1262.79 1161.33 1263.92 1158.54 C 1267.21 1150.41 1268.33 1141.15 1270.61 1132.67 C 1276.55 1110.58 1285.44 1087.43 1297.57 1068.05 C 1311.2 1046.26 1327.13 1032.92 1352.38 1027.22 z"/>
</svg>